<svg xmlns="http://www.w3.org/2000/svg" width="145.529" height="145.515" viewBox="0 0 145.529 145.515">
  <g id="Build_a_new_world2" data-name="Build a new world2" transform="translate(0 -0.025)">
    <g id="Group_43" data-name="Group 43" transform="translate(17.348 2.156)">
      <circle id="Ellipse_4" data-name="Ellipse 4" cx="55.41" cy="55.41" r="55.41" fill="#62b4fd"/>
    </g>
    <g id="Group_44" data-name="Group 44" transform="translate(89.191 69.626)">
      <path id="Path_65" data-name="Path 65" d="M319.071,245.058l5.29,2.48a1.723,1.723,0,0,1,.757,2.428l-4.374,7.5a1.723,1.723,0,0,1-2.033.766l-3.742-1.247a1.723,1.723,0,0,1-1.021-2.352l2.162-4.718a2.872,2.872,0,0,0,.245-.9l.272-2.581A1.722,1.722,0,0,1,319.071,245.058Z" transform="translate(-313.791 -244.894)" fill="#93d87b"/>
    </g>
    <g id="Group_45" data-name="Group 45" transform="translate(77.351 19.957)">
      <path id="Path_66" data-name="Path 66" d="M272.136,75.891v5.024a5.742,5.742,0,0,0,2.854,4.963l10.082,5.866a5.742,5.742,0,0,1,2.854,4.963v8.266a5.742,5.742,0,0,0,3.3,5.2l9.356,4.392a5.741,5.741,0,0,0,2.96.52l7.082-.644a5.744,5.744,0,0,1,1.669.093l9.957,2.034a55.8,55.8,0,0,0,.7-8.807,55.209,55.209,0,0,0-14.723-37.61H277.878a5.742,5.742,0,0,0-5.742,5.742Z" transform="translate(-272.136 -70.149)" fill="#93d87b"/>
    </g>
    <g id="Group_46" data-name="Group 46" transform="translate(17.348 4.845)">
      <path id="Path_67" data-name="Path 67" d="M61.033,69.7a55.149,55.149,0,0,0,8.83,30.019l7.112-5.363a2.925,2.925,0,0,0,.91-3.526l-6.691-15a2.925,2.925,0,0,1,2.671-4.116,2.925,2.925,0,0,0,2.77-1.986l4.4-12.967a2.925,2.925,0,0,1,2.77-1.986h8.142a2.925,2.925,0,0,0,2.4-1.26L105.53,37.362a2.924,2.924,0,0,0,.34-2.674L99.358,16.982A55.431,55.431,0,0,0,61.033,69.7Z" transform="translate(-61.033 -16.982)" fill="#93d87b"/>
    </g>
    <g id="Group_47" data-name="Group 47" transform="translate(28.691 74.618)">
      <path id="Path_68" data-name="Path 68" d="M197.74,262.456l-21.283,21.707a2.872,2.872,0,0,1-2.05.861h-3.617a1.148,1.148,0,0,1-1.143-1.23q.038-.567.029-1.146a13.782,13.782,0,0,0-13.859-13.414h-26.6a20.1,20.1,0,0,0-9.315,2.289l-12.41,6.491A8.647,8.647,0,0,1,103.5,279h-2.559a55.418,55.418,0,0,0,96.8-16.539Z" transform="translate(-100.941 -262.456)" fill="#27a2fb"/>
    </g>
    <g id="Group_54" data-name="Group 54" transform="translate(2.132 76.089)">
      <g id="Group_48" data-name="Group 48" transform="translate(0 20.81)">
        <path id="Path_69" data-name="Path 69" d="M7.5,340.845H30.467v46.51H7.5Z" transform="translate(-7.499 -340.845)" fill="#fb636f"/>
      </g>
      <g id="Group_49" data-name="Group 49" transform="translate(0 20.81)">
        <path id="Path_70" data-name="Path 70" d="M24.725,340.845v37.9a2.871,2.871,0,0,1-2.871,2.871H7.5v5.742H30.467v-46.51H24.725Z" transform="translate(-7.499 -340.845)" fill="#fa4954"/>
      </g>
      <g id="Group_50" data-name="Group 50" transform="translate(22.968)">
        <path id="Path_71" data-name="Path 71" d="M146.994,294.471a7.9,7.9,0,1,0,0-15.791H120.172a14.357,14.357,0,0,0-6.653,1.635l-12.41,6.491a14.353,14.353,0,0,1-6.653,1.635H88.3V327.2h23.177a28.706,28.706,0,0,0,6.9-.842l48.6-12.035a28.71,28.71,0,0,0,14.111-8.3l23.371-25.043a7.948,7.948,0,0,0-11.614-10.854l-23.872,24.347Z" transform="translate(-88.304 -267.631)" fill="#fcd0a3"/>
      </g>
      <g id="Group_51" data-name="Group 51" transform="translate(54.24 16.683)">
        <path id="Path_72" data-name="Path 72" d="M225.744,331.959H200.587a2.261,2.261,0,0,0-2.261,2.261v2.261h27.418a7.9,7.9,0,0,0,7.565-10.156A7.9,7.9,0,0,1,225.744,331.959Z" transform="translate(-198.326 -326.325)" fill="#ffb983"/>
      </g>
      <g id="Group_52" data-name="Group 52" transform="translate(22.968 1.735)">
        <path id="Path_73" data-name="Path 73" d="M204.269,274.348a8.2,8.2,0,0,0-.69-.614,7.908,7.908,0,0,1-2.006,6.751L178.2,305.528a28.71,28.71,0,0,1-14.111,8.3l-48.6,12.035a28.706,28.706,0,0,1-6.9.842H88.3v4.86h23.177a28.707,28.707,0,0,0,6.9-.842l48.6-12.035a28.709,28.709,0,0,0,14.111-8.3l23.371-25.043A7.92,7.92,0,0,0,204.269,274.348Z" transform="translate(-88.304 -273.734)" fill="#ffb983"/>
      </g>
      <g id="Group_53" data-name="Group 53" transform="translate(7.752 32.581)">
        <circle id="Ellipse_5" data-name="Ellipse 5" cx="3.732" cy="3.732" r="3.732" fill="#fcee56"/>
      </g>
    </g>
    <g id="Group_55" data-name="Group 55" transform="translate(58.977 45.221)">
      <path id="Path_74" data-name="Path 74" d="M225.308,159.355l4.372,2.261a2.871,2.871,0,0,1,1.533,2.876l-.82,7.173a2.872,2.872,0,0,1-.715,1.591l-6.088,6.791a2.871,2.871,0,0,1-1.909.945l-5.291.423a2.87,2.87,0,0,0-1.363.473l-2.589,1.726a2.871,2.871,0,0,1-3.623-.359l-.481-.482a2.871,2.871,0,0,1-.3-3.713l13.625-18.838a2.87,2.87,0,0,1,3.645-.867Z" transform="translate(-207.493 -159.033)" fill="#93d87b"/>
    </g>
    <g id="Group_56" data-name="Group 56" transform="translate(0 0.025)">
      <path id="Path_75" data-name="Path 75" d="M142.571,76.93a10.077,10.077,0,0,0-14.461.173l-2.01,2.05A57.542,57.542,0,1,0,28.857,94.767H2.132A2.132,2.132,0,0,0,0,96.9v6.874a2.131,2.131,0,0,0,4.263,0V99.03h18.7v42.247H4.263V113.749a2.132,2.132,0,0,0-4.263,0v29.659a2.132,2.132,0,0,0,2.131,2.131H25.1a2.132,2.132,0,0,0,2.131-2.131v-5.62h4.7a2.131,2.131,0,1,0,0-4.263h-4.7v-34.5h4.02a16.552,16.552,0,0,0,7.641-1.878L51.3,90.661a12.272,12.272,0,0,1,5.665-1.392h9.314a2.131,2.131,0,1,0,0-4.263H56.967a16.548,16.548,0,0,0-7.641,1.878l-12.41,6.491a12.229,12.229,0,0,1-2.662,1.014,53.774,53.774,0,0,1-5.188-6.311l5.508-4.154a5.033,5.033,0,0,0,1.574-6.1l-6.691-15a.793.793,0,0,1,.725-1.116,5.054,5.054,0,0,0,4.789-3.433l4.4-12.967a.793.793,0,0,1,.751-.539h8.142a5.058,5.058,0,0,0,4.157-2.178L63.6,26.438a5.062,5.062,0,0,0,.588-4.623L58.457,6.24A53.221,53.221,0,0,1,108.2,17.825H83.093A7.882,7.882,0,0,0,75.22,25.7v5.024a7.9,7.9,0,0,0,3.914,6.805l10.082,5.866a3.622,3.622,0,0,1,1.795,3.121V54.78a7.9,7.9,0,0,0,4.528,7.128l9.356,4.391a7.879,7.879,0,0,0,4.058.714l7.083-.644a3.592,3.592,0,0,1,1.049.058L125,68.043a53.176,53.176,0,0,1-12.236,24.716l-4.017,4.1a53.792,53.792,0,0,1-4.849,3.94H91.986a10.019,10.019,0,0,0-8.2-15.79H76.254a2.131,2.131,0,1,0,0,4.263h7.535a5.763,5.763,0,1,1,0,11.527H56.371a2.131,2.131,0,0,0,0,4.263h49.4a2.132,2.132,0,0,0,1.522-.639l23.872-24.347.03-.031a5.748,5.748,0,0,1,4.13-1.821,5.818,5.818,0,0,1,4.374,9.759l-23.373,25.045a26.513,26.513,0,0,1-13.063,7.687l-48.6,12.035a26.608,26.608,0,0,1-6.389.779H41.883a2.131,2.131,0,1,0,0,4.263h6.393a30.871,30.871,0,0,0,7.413-.9l48.6-12.035a30.766,30.766,0,0,0,15.157-8.918L142.82,90.886a10.013,10.013,0,0,0-.249-13.956ZM60.184,23.286a.794.794,0,0,1-.092.725L48.91,40.164a.793.793,0,0,1-.652.342H40.116a5.054,5.054,0,0,0-4.789,3.433l-4.4,12.967a.793.793,0,0,1-.751.539,5.056,5.056,0,0,0-4.618,7.116l6.691,15a.79.79,0,0,1-.247.956l-5.251,3.96A53.32,53.32,0,0,1,54.4,7.55ZM117.938,62.25a7.87,7.87,0,0,0-2.289-.127l-7.082.644a3.616,3.616,0,0,1-1.861-.327L97.35,58.048a3.625,3.625,0,0,1-2.076-3.268V46.514a7.9,7.9,0,0,0-3.914-6.805L81.277,33.842a3.622,3.622,0,0,1-1.795-3.121V25.7a3.614,3.614,0,0,1,3.61-3.61h29.375a53.171,53.171,0,0,1,13.2,41.741Z" transform="translate(0 -0.025)"/>
      <path id="Path_76" data-name="Path 76" d="M39,380.623a5.864,5.864,0,1,0-5.864,5.864A5.87,5.87,0,0,0,39,380.623Zm-7.465,0a1.6,1.6,0,1,1,1.6,1.6A1.6,1.6,0,0,1,31.535,380.623Z" transform="translate(-19.52 -268.246)"/>
      <path id="Path_77" data-name="Path 77" d="M308.929,253.644l3.742,1.247a3.815,3.815,0,0,0,1.208.2,3.874,3.874,0,0,0,3.34-1.91l4.374-7.5a3.854,3.854,0,0,0-1.694-5.432l-5.29-2.48a3.854,3.854,0,0,0-5.469,3.086l-.271,2.581a.732.732,0,0,1-.063.231l-2.162,4.718a3.855,3.855,0,0,0,2.285,5.262Zm3.753-8.2a5,5,0,0,0,.428-1.561l.211-2.009,4.364,2.046-3.982,6.825-2.994-1Z" transform="translate(-219.234 -169.931)"/>
      <path id="Path_78" data-name="Path 78" d="M146.419,213.268l-2.871,2.871a2.132,2.132,0,1,0,3.015,3.014l2.871-2.871a2.132,2.132,0,0,0-3.015-3.014Z" transform="translate(-102.299 -152.209)"/>
      <path id="Path_79" data-name="Path 79" d="M362.052,105.7a2.132,2.132,0,0,0-3.014,0l-2.871,2.871a2.132,2.132,0,1,0,3.015,3.014l2.871-2.871A2.131,2.131,0,0,0,362.052,105.7Z" transform="translate(-254.484 -75.214)"/>
      <path id="Path_80" data-name="Path 80" d="M377.219,123.877l-2.871,2.871a2.132,2.132,0,1,0,3.015,3.014l2.871-2.871a2.132,2.132,0,0,0-3.015-3.014Z" transform="translate(-267.497 -88.227)"/>
      <path id="Path_81" data-name="Path 81" d="M219.793,176.08l6.088-6.791a4.978,4.978,0,0,0,1.245-2.771l.82-7.173a5.03,5.03,0,0,0-2.672-5.011l-4.372-2.261a4.972,4.972,0,0,0-6.352,1.512l-13.625,18.838a4.982,4.982,0,0,0,.516,6.469l.482.482a5.016,5.016,0,0,0,6.312.625l2.589-1.726a.741.741,0,0,1,.351-.122l5.291-.423A4.981,4.981,0,0,0,219.793,176.08Zm-3.666-2.6-5.291.423a5.014,5.014,0,0,0-2.376.824l-2.589,1.726a.741.741,0,0,1-.933-.092l-.482-.482a.736.736,0,0,1-.076-.956L218,156.084a.743.743,0,0,1,.6-.305.731.731,0,0,1,.337.082l4.372,2.261a.743.743,0,0,1,.395.741l-.82,7.173a.737.737,0,0,1-.184.41l-6.088,6.79a.736.736,0,0,1-.491.244Z" transform="translate(-143.131 -108.449)"/>
    </g>
  </g>
</svg>
