<svg xmlns="http://www.w3.org/2000/svg" width="144.471" height="151.322" viewBox="0 0 144.471 151.322">
  <g id="Create_a_New_Product" data-name="Create a New Product" transform="translate(-11.59)">
    <g id="Group_40" data-name="Group 40" transform="translate(13.881 2.405)">
      <path id="Path_4" data-name="Path 4" d="M275.865,8.138H254.128l-1.6,1.425h-13.6l-1.454-1.425H215.742a4.175,4.175,0,0,0-4.163,4.163V72.424a4.176,4.176,0,0,0,4.163,4.164h60.123a4.176,4.176,0,0,0,4.163-4.164V12.3a4.175,4.175,0,0,0-4.163-4.163Z" transform="translate(-154.762 -8.138)" fill="#fbc481"/>
      <path id="Path_5" data-name="Path 5" d="M226.4,72.424V12.3a4.175,4.175,0,0,1,4.163-4.163H215.742a4.175,4.175,0,0,0-4.163,4.163V72.424a4.176,4.176,0,0,0,4.163,4.164h14.823A4.176,4.176,0,0,1,226.4,72.424Z" transform="translate(-154.762 -8.138)" fill="#dd9973"/>
      <path id="Path_6" data-name="Path 6" d="M299.211,8.138V34.5a1.456,1.456,0,0,0,2.254,1.219l5.273-3.451a1.456,1.456,0,0,1,1.595,0l5.273,3.451A1.456,1.456,0,0,0,315.86,34.5V8.138Z" transform="translate(-216.494 -8.138)" fill="#d6865f"/>
      <g id="Group_38" data-name="Group 38" transform="translate(82.717)">
        <path id="Path_7" data-name="Path 7" d="M307.534,8.138H299.21V34.5a1.456,1.456,0,0,0,2.254,1.219l5.273-3.451a1.456,1.456,0,0,1,.8-.238Z" transform="translate(-299.21 -8.138)" fill="#b97359"/>
      </g>
      <path id="Path_8" data-name="Path 8" d="M259.777,135.014H244.738a3.858,3.858,0,0,0-3.858,3.858v15.316a3.858,3.858,0,0,0,3.858,3.858h15.039a3.858,3.858,0,0,0,3.858-3.858V138.872A3.858,3.858,0,0,0,259.777,135.014Z" transform="translate(-175.403 -97.515)" fill="#ffeddc"/>
      <path id="Path_9" data-name="Path 9" d="M252.259,154.189V138.873a3.858,3.858,0,0,1,3.858-3.858H244.74a3.858,3.858,0,0,0-3.858,3.858v15.316a3.858,3.858,0,0,0,3.858,3.858h11.377A3.858,3.858,0,0,1,252.259,154.189Z" transform="translate(-175.404 -97.516)" fill="#fcd5ac"/>
      <path id="Path_10" data-name="Path 10" d="M398.108,271.777a7.254,7.254,0,0,0-10.206,1.8l-13.356,19.259a4.107,4.107,0,0,1-.594.675l-.424.351.775.775h3.59l22.659-14.624.654-1.38a8.406,8.406,0,0,0-3.1-6.855Z" transform="translate(-268.846 -192.901)" fill="#ffcebe"/>
      <path id="Path_11" data-name="Path 11" d="M396.277,273.578a7.37,7.37,0,0,1,1.8-1.821,7.253,7.253,0,0,0-10.173,1.821l-13.356,19.259a4.109,4.109,0,0,1-.594.675l-.424.351.775.775h3.59l6.84-4.414Z" transform="translate(-268.846 -192.902)" fill="#ffb1a0"/>
      <path id="Path_12" data-name="Path 12" d="M233.1,284.564a7.348,7.348,0,0,0-10.361-1.954l-18.93,13.337a4.3,4.3,0,0,1-2.9.763l-13.852-1.379a.085.085,0,0,1-.007-.169,8.011,8.011,0,0,0-.052-15.84l-32.546-4.976a14.413,14.413,0,0,0-10.477,2.461L126.587,289.06l-.958,3.44,17.241,24.689h3.641a45.543,45.543,0,0,1,23.173-6.016l29.327.357a23.446,23.446,0,0,0,14.085-4.267l17.969-12.66A7.376,7.376,0,0,0,233.1,284.564Z" transform="translate(-94.215 -195.549)" fill="#ffdecf"/>
      <g id="Group_39" data-name="Group 39" transform="translate(31.414 78.631)">
        <path id="Path_13" data-name="Path 13" d="M142.6,294.166a4.311,4.311,0,0,1,1.051-5.992l16.133-11.367a14.375,14.375,0,0,1,2.261-1.3l-7.591-1.161a14.413,14.413,0,0,0-10.477,2.461L126.587,289.06l-.958,3.44,17.241,24.689h3.641a45.616,45.616,0,0,1,9.348-4.035Z" transform="translate(-125.629 -274.18)" fill="#ffcebe"/>
      </g>
      <path id="Path_14" data-name="Path 14" d="M118.027,345.117l-24.082-34a3.311,3.311,0,0,0-4.62-.758L82.3,315.335v3.015l25.515,35.27,2.369,1.083,7.025-4.976A3.31,3.31,0,0,0,118.027,345.117Z" transform="translate(-63.692 -220.599)" fill="#dbedff"/>
      <path id="Path_15" data-name="Path 15" d="M97.466,316.091l-3.522-4.972a3.311,3.311,0,0,0-4.62-.758L82.3,315.336v3.015l4.057,5.608Z" transform="translate(-63.692 -220.599)" fill="#b5dcff"/>
      <path id="Path_16" data-name="Path 16" d="M37.95,328.672,20.8,340.816a3.345,3.345,0,0,0-.872,4.649l24.082,34a3.345,3.345,0,0,0,4.675.72l17.146-12.144Z" transform="translate(-19.342 -233.936)" fill="#80b4fb"/>
      <path id="Path_17" data-name="Path 17" d="M33.457,347.383c-1.05-1.483-.471-3.7,1.292-4.946l8.624-6.108-5.423-7.656L20.8,340.816a3.345,3.345,0,0,0-.872,4.649l24.082,34a3.345,3.345,0,0,0,4.675.72l5.328-3.774Z" transform="translate(-19.342 -233.936)" fill="#61a2f9"/>
    </g>
    <g id="Group_41" data-name="Group 41" transform="translate(11.59 0)">
      <path id="Path_18" data-name="Path 18" d="M267.413,178.39h-9.3a2.217,2.217,0,0,0,0,4.433h9.3a2.217,2.217,0,0,0,0-4.433Z" transform="translate(-183.689 -125.666)"/>
      <path id="Path_19" data-name="Path 19" d="M267.413,153.29h-9.3a2.217,2.217,0,0,0,0,4.433h9.3a2.217,2.217,0,0,0,0-4.433Z" transform="translate(-183.689 -107.984)"/>
      <path id="Path_20" data-name="Path 20" d="M239.209,126.876a6.081,6.081,0,0,0-6.075,6.075v15.316a6.081,6.081,0,0,0,6.075,6.074h15.039a6.081,6.081,0,0,0,6.075-6.074V132.951a6.081,6.081,0,0,0-6.075-6.075Zm16.68,6.075v15.316a1.643,1.643,0,0,1-1.641,1.641H239.208a1.643,1.643,0,0,1-1.641-1.641V132.951a1.643,1.643,0,0,1,1.641-1.641h15.039a1.643,1.643,0,0,1,1.641,1.641Z" transform="translate(-167.655 -89.377)"/>
      <path id="Path_21" data-name="Path 21" d="M12.589,299.784l24.082,34a5.568,5.568,0,0,0,7.765,1.247l24.171-17.12a5.525,5.525,0,0,0,1.346-7.7l-.585-.826a43.252,43.252,0,0,1,19.883-4.572l29.3.357a25.816,25.816,0,0,0,15.417-4.671l17.97-12.66a9.645,9.645,0,0,0,2.611-13.071,9.472,9.472,0,0,0-6.2-4.123c-.04-.008-.081-.013-.121-.02a10.183,10.183,0,0,0-3.868-6.577,9.465,9.465,0,0,0-13.316,2.338L117.7,285.627l-4.4-.439a10.225,10.225,0,0,0-6.367-16.634l-32.545-4.976a16.544,16.544,0,0,0-12.089,2.84L46.711,277.4l-.841-1.187a5.524,5.524,0,0,0-7.71-1.286l-24.171,17.12a5.558,5.558,0,0,0-1.4,7.739Zm122.1-30.872a5.035,5.035,0,0,1,7.095-1.259,5.628,5.628,0,0,1,1.981,3.24,9.726,9.726,0,0,0-2.7,1.328L124.11,284.164Zm-69.839,1.131a12.136,12.136,0,0,1,8.865-2.082l32.546,4.976a5.8,5.8,0,0,1-.549,11.522c-.333.019,1.055.116-12.318-.952a2.217,2.217,0,1,0-.353,4.419c.3.024,26.629,2.1,27.245,2.413a6.59,6.59,0,0,0,4.4-1.157l7.857-5.536,11.072-7.8a5.083,5.083,0,1,1,5.77,8.367l-17.97,12.661a21.368,21.368,0,0,1-12.782,3.863L89.3,300.38a47.86,47.86,0,0,0-22.53,5.344l-17.5-24.708Zm-24.125,8.5a1.1,1.1,0,0,1,1.53.231L64.3,309.894l2.039,2.879a1.1,1.1,0,0,1-.29,1.52l-5.216,3.695L35.506,282.238Zm-24.171,17.12L31.888,284.8,57.21,320.551,41.873,331.414a1.133,1.133,0,0,1-1.584-.192l-24.082-34a1.133,1.133,0,0,1,.345-1.559Z" transform="translate(-11.59 -184.757)"/>
      <path id="Path_22" data-name="Path 22" d="M270.335,68.449H245.446a2.217,2.217,0,1,0,0,4.433h24.889a6.387,6.387,0,0,0,6.38-6.38V6.38A6.387,6.387,0,0,0,270.335,0H210.212a6.387,6.387,0,0,0-6.38,6.38V66.5a6.387,6.387,0,0,0,6.38,6.38H235.1a2.217,2.217,0,0,0,0-4.433H210.212a1.949,1.949,0,0,1-1.947-1.947V6.38a1.949,1.949,0,0,1,1.947-1.946h19.52V28.575a3.676,3.676,0,0,0,5.684,3.073l4.857-3.178,4.857,3.178a3.675,3.675,0,0,0,5.684-3.073V20.151a2.217,2.217,0,1,0-4.433,0v7.017l-4.1-2.681a3.673,3.673,0,0,0-4.022,0l-4.1,2.681V4.433h12.215V9.807a2.217,2.217,0,1,0,4.433,0V4.433h19.52a1.949,1.949,0,0,1,1.947,1.946V66.5a1.949,1.949,0,0,1-1.947,1.947Z" transform="translate(-147.013 0)"/>
    </g>
  </g>
</svg>
