<svg id="Page-1" xmlns="http://www.w3.org/2000/svg" width="102.544" height="104.311" viewBox="0 0 102.544 104.311">
  <g id="_005---Start-Up-Company" data-name="005---Start-Up-Company" transform="translate(0)">
    <path id="Path" d="M68.678,22.58H1v30.8a3.547,3.547,0,0,0,3.536,3.536H69.983Z" transform="translate(0.768 17.341)" fill="#a56a43" fill-rule="evenodd"/>
    <path id="Path-2" data-name="Path" d="M65.592,37.288A130.76,130.76,0,0,1,47.736,38.95H33.592C13.1,38.278,5.357,34.813,1.786,33.027A3.221,3.221,0,0,1,0,30.145V12.536A3.547,3.547,0,0,1,3.536,9h65.91Z" transform="translate(0 6.912)" fill="#cb8252" fill-rule="evenodd"/>
    <rect id="Rectangle" width="14" height="11" rx="1" transform="translate(33.272 40.656)" fill="#95a5a5"/>
    <path id="Rectangle-2" data-name="Rectangle" d="M20,9H30.608V33.752H20Z" transform="translate(15.36 6.912)" fill="#cf976a" fill-rule="evenodd"/>
    <path id="Path-3" data-name="Path" d="M49.128,10.608A1.768,1.768,0,0,1,47.36,8.84V5.3a1.768,1.768,0,0,0-1.768-1.768H17.3A1.768,1.768,0,0,0,15.536,5.3V8.84A1.768,1.768,0,1,1,12,8.84V5.3A5.3,5.3,0,0,1,17.3,0H45.592a5.3,5.3,0,0,1,5.3,5.3V8.84A1.768,1.768,0,0,1,49.128,10.608Z" transform="translate(9.216)" fill="#805333" fill-rule="evenodd"/>
    <path id="Path-4" data-name="Path" d="M12.536,5h7.072a3.536,3.536,0,0,1,3.536,3.536v3.536H9V8.536A3.536,3.536,0,0,1,12.536,5Z" transform="translate(6.912 3.84)" fill="#a56a43" fill-rule="evenodd"/>
    <path id="Path-5" data-name="Path" d="M32.536,5h7.072a3.536,3.536,0,0,1,3.536,3.536v3.536H29V8.536A3.536,3.536,0,0,1,32.536,5Z" transform="translate(22.272 3.84)" fill="#a56a43" fill-rule="evenodd"/>
    <path id="Path-6" data-name="Path" d="M43.136,33.43,30.707,42.747A1.793,1.793,0,0,0,30,44.162v4.42a1.768,1.768,0,0,0,1.768,1.768H44.144Z" transform="translate(23.039 25.674)" fill="#e64c3c" fill-rule="evenodd"/>
    <path id="Path-7" data-name="Path" d="M51.008,33.43l12.429,9.317a1.793,1.793,0,0,1,.707,1.414v4.42a1.768,1.768,0,0,1-1.768,1.768H50Z" transform="translate(38.399 25.674)" fill="#e64c3c" fill-rule="evenodd"/>
    <path id="Path-8" data-name="Path" d="M37,28.984C37,18.376,40.536,6,49.376,6S61.752,18.376,61.752,28.984c0,13.613-1.292,36.27-1.667,42.545a1.768,1.768,0,0,1-1.768,1.655H40.432a1.768,1.768,0,0,1-1.768-1.655C38.292,65.254,37,42.6,37,28.984Z" transform="translate(28.415 4.608)" fill="#ecf0f1" fill-rule="evenodd"/>
    <path id="Path-9" data-name="Path" d="M39,44H56.68v3.536a3.536,3.536,0,0,1-3.536,3.536H42.536A3.536,3.536,0,0,1,39,47.536Z" transform="translate(29.951 33.791)" fill="#547580" fill-rule="evenodd"/>
    <circle id="Oval" cx="5.5" cy="5.5" r="5.5" transform="translate(72.272 33.656)" fill="#67b9cc"/>
    <path id="Path-10" data-name="Path" d="M44.768,53.448A1.768,1.768,0,0,1,43,51.68V35.768a1.768,1.768,0,1,1,3.536,0V51.68A1.768,1.768,0,0,1,44.768,53.448Z" transform="translate(33.023 26.111)" fill="#e64c3c" fill-rule="evenodd"/>
    <path id="Path-11" data-name="Path" d="M51.216,48v7.072A5.263,5.263,0,0,0,47.963,56.2a6.964,6.964,0,0,0-3.819-1.132,7.045,7.045,0,0,0-6.418,4.119,5.33,5.33,0,0,0-4.666-.09A5.481,5.481,0,0,0,30,64.14a3.308,3.308,0,0,0,3.308,3.308H76.2A3.308,3.308,0,0,0,79.5,64.14a5.481,5.481,0,0,0-3.06-5.039,5.33,5.33,0,0,0-4.666.09,7.045,7.045,0,0,0-6.418-4.119A6.964,6.964,0,0,0,61.541,56.2a5.263,5.263,0,0,0-3.253-1.132V48Z" transform="translate(23.039 36.863)" fill="#95a5a5" fill-rule="evenodd"/>
    <path id="Path-12" data-name="Path" d="M60.966,21.912H37.31C38.565,13.549,42.243,6,49.138,6S59.71,13.549,60.966,21.912Z" transform="translate(28.653 4.608)" fill="#e64c3c" fill-rule="evenodd"/>
  </g>
</svg>
