<svg xmlns="http://www.w3.org/2000/svg" width="150" height="150" viewBox="0 0 150 150">
  <g id="Product_or_Company_consultation" data-name="Product or Company consultation" transform="translate(0)">
    <path id="Path_82" data-name="Path 82" d="M200,27.355V8h53.226V27.355H231.452l-14.516,12.1v-12.1Zm0,0" transform="translate(-139.516 -5.581)" fill="#e6e9ed"/>
    <path id="Path_83" data-name="Path 83" d="M147.742,385.677v24.194h-9.677l-4.839-9.677H94.516l-4.839,9.677H80V376h67.742Zm0,0" transform="translate(-55.807 -262.291)" fill="#e6e9ed"/>
    <path id="Path_84" data-name="Path 84" d="M147.742,344v9.677H80V344Zm0,0" transform="translate(-55.807 -239.968)" fill="#e6e9ed"/>
    <path id="Path_85" data-name="Path 85" d="M143.839,312v9.677H64V312Zm0,0" transform="translate(-44.645 -217.645)" fill="#aab2bd"/>
    <path id="Path_86" data-name="Path 86" d="M155.548,456l4.839,9.677H112L116.839,456Zm0,0" transform="translate(-78.129 -318.097)" fill="#838f9b"/>
    <path id="Path_87" data-name="Path 87" d="M369.677,408l2.419,24.194h-9.677L360,408Zm0,0" transform="translate(-251.129 -284.613)" fill="#838f9b"/>
    <path id="Path_88" data-name="Path 88" d="M345.129,264v29.032a14.527,14.527,0,0,1-14.516,14.516H304v-9.677h21.774a9.675,9.675,0,0,0,9.677-9.677V264Zm0,0" transform="translate(-212.065 -184.161)" fill="#cf9e76"/>
    <path id="Path_89" data-name="Path 89" d="M329.113,232.758a5.139,5.139,0,0,0,0-7.258,5.447,5.447,0,0,0-3.338-1.477V224h3.338a6.03,6.03,0,0,1,2.83.677,6.317,6.317,0,0,1,3.509,5.662V260.29a9.675,9.675,0,0,1-9.677,9.677H304V260.29h7.258v-9.677h-.992a2.439,2.439,0,0,0,1.694-.7Zm0,0" transform="translate(-212.065 -156.258)" fill="#fcd770"/>
    <path id="Path_90" data-name="Path 90" d="M139.548,261.774H96V250.306a7.252,7.252,0,0,1,5.275-6.967L112.935,240s2.419,4.839,7.258,4.839S127.452,240,127.452,240l11.661,3.338a7.252,7.252,0,0,1,5.275,6.967V252.1h-4.839a4.873,4.873,0,0,0-4.839,4.839,4.853,4.853,0,0,0,4.839,4.839Zm0,0" transform="translate(-66.968 -167.419)" fill="#69d6f4"/>
    <g id="Group_57" data-name="Group 57" transform="translate(41.129 38.71)">
      <path id="Path_91" data-name="Path 91" d="M269.968,224.023a5.447,5.447,0,0,1,3.338,1.477,5.139,5.139,0,0,1,0,7.258l-17.153,17.153a2.439,2.439,0,0,1-1.694.7H228.839A4.853,4.853,0,0,1,224,245.774a4.873,4.873,0,0,1,4.839-4.839h21.774L266.048,225.5a5.128,5.128,0,0,1,3.629-1.5,1.207,1.207,0,0,1,.291.024Zm0,0" transform="translate(-197.387 -194.968)" fill="#f0d0b4"/>
      <path id="Path_92" data-name="Path 92" d="M352.194,140.1v4.839a12.1,12.1,0,1,1-24.194,0V140.1a12.1,12.1,0,1,1,24.194,0Zm0,0" transform="translate(-269.936 -128)" fill="#f0d0b4"/>
      <path id="Path_93" data-name="Path 93" d="M152,216a12.1,12.1,0,0,0,14.516,0v7.258s-2.419,4.839-7.258,4.839S152,223.258,152,223.258Zm0,0" transform="translate(-147.161 -189.387)" fill="#f0d0b4"/>
      <path id="Path_94" data-name="Path 94" d="M160.194,140.1v4.839a12.121,12.121,0,0,1-4.839,9.677,12.1,12.1,0,0,1-14.516,0A12.121,12.121,0,0,1,136,144.935V140.1a12.1,12.1,0,1,1,24.194,0Zm0,0" transform="translate(-136 -128)" fill="#f0d0b4"/>
    </g>
    <path id="Path_95" data-name="Path 95" d="M208.935,39.036l17.811-14.842h23.318V0H192V24.193h16.935Zm-12.1-19.681V4.839h48.387V19.355H225l-11.221,9.351V19.355Zm0,0" transform="translate(-133.936)"/>
    <path id="Path_96" data-name="Path 96" d="M224,32h4.839v4.839H224Zm0,0" transform="translate(-156.258 -22.323)"/>
    <path id="Path_97" data-name="Path 97" d="M256,32h19.355v4.839H256Zm0,0" transform="translate(-178.581 -22.323)"/>
    <path id="Path_98" data-name="Path 98" d="M336,32h4.839v4.839H336Zm0,0" transform="translate(-234.387 -22.323)"/>
    <path id="Path_99" data-name="Path 99" d="M123.156,228.871,121.2,209.286a16.946,16.946,0,0,0,14.283-16.705V161.129h-9.677v-3.343a8.7,8.7,0,0,0-4.713-7.757,14.459,14.459,0,0,0,4.713-10.674v-4.839a14.516,14.516,0,0,0-29.032,0v4.839a14.527,14.527,0,0,0,9.564,13.628L93.353,165.968H79.785A9.7,9.7,0,0,0,72.82,157.3l-9.917-2.83v-4.321a14.466,14.466,0,0,0,4.839-10.79v-4.839a14.516,14.516,0,1,0-29.032,0v4.839a14.474,14.474,0,0,0,4.839,10.79v4.324l-9.917,2.83a9.714,9.714,0,0,0-7.018,9.305v9.041H16.935v14.516h4.839v38.71H0v4.839H150v-4.839Zm-21.544-38.71v-11.1l17.143-17.143a7.579,7.579,0,0,0,2.142-4.64,3.938,3.938,0,0,1,.07.5v29.956A7.267,7.267,0,0,1,113.709,195H94.354v-4.839Zm-7.258,19.355h12.327l1.935,19.355H94.354Zm17.189,0h4.815l1.935,19.355h-4.815Zm14.262-21.774V165.968h4.839V192.58a12.111,12.111,0,0,1-12.1,12.1H94.354v-4.839h19.355A12.111,12.111,0,0,0,125.806,187.742Zm-24.194-48.387v-4.839a9.677,9.677,0,1,1,19.355,0v4.839a9.677,9.677,0,1,1-19.355,0Zm-6.256,31.452L111.5,154.665a2.713,2.713,0,0,1,3.837,3.837L98.191,175.645H72.58a2.419,2.419,0,0,1,0-4.839Zm-51.808-36.29a9.677,9.677,0,0,1,19.355,0v4.839a9.677,9.677,0,1,1-19.355,0Zm9.677,19.355a14.445,14.445,0,0,0,4.839-.847v2.6c-.6.926-2.267,3.087-4.839,3.087s-4.239-2.161-4.839-3.087v-2.6A14.445,14.445,0,0,0,53.225,153.871ZM31.451,166.6a4.861,4.861,0,0,1,3.509-4.653l9.967-2.847a10.537,10.537,0,0,0,8.3,4.444,10.532,10.532,0,0,0,8.3-4.447l9.967,2.847a4.822,4.822,0,0,1,3.4,4.017H72.58a7.267,7.267,0,0,0-7.258,7.258,7.158,7.158,0,0,0,.445,2.419H31.451Zm-9.677,13.879h75v4.839h-75Zm4.839,19.355H33.87V195H26.612v-4.839h62.9V195H38.709v4.839H89.516v29.032H83.753l-4.839-9.677h-41.7l-4.839,9.677H26.612Zm51.73,29.032H37.786l2.419-4.839H75.923Zm0,0" transform="translate(0 -83.71)"/>
  </g>
</svg>
