<svg xmlns="http://www.w3.org/2000/svg" width="158" height="158" viewBox="0 0 158 158">
  <g id="Venture_Capital_funding" data-name="Venture Capital funding" transform="translate(-16 -16)">
    <path id="Path_100" data-name="Path 100" d="M242.233,320v14.205a31.359,31.359,0,0,1-5.267,17.395H208V320Z" transform="translate(-128.8 -203.933)" fill="#f5c99d"/>
    <path id="Path_101" data-name="Path 101" d="M216,88a17.4,17.4,0,0,0,2.921,9.649l2.345,3.518V103.8h15.8v-2.633l2.345-3.518A17.394,17.394,0,0,0,242.333,88Z" transform="translate(-134.167 -48.3)" fill="#d45d13"/>
    <path id="Path_102" data-name="Path 102" d="M215.2,181.427V151.7A23.7,23.7,0,0,0,191.5,128H180.967a23.7,23.7,0,0,0-23.7,23.7v26.333a4.764,4.764,0,0,1-2.633,4.261A4.764,4.764,0,0,0,152,186.555V191.2h68.467v-2.323a7.9,7.9,0,0,0-5.267-7.45Z" transform="translate(-91.233 -75.133)" fill="#f07f2f"/>
    <path id="Path_103" data-name="Path 103" d="M248,128h0a7.9,7.9,0,0,0,7.9,7.9h0a13.167,13.167,0,0,1,13.167,13.167v31.911H279.6V151.7A23.7,23.7,0,0,0,255.9,128Z" transform="translate(-155.633 -75.133)" fill="#de6a1e"/>
    <path id="Path_104" data-name="Path 104" d="M72,288h7.259a26.973,26.973,0,0,1,19.075,7.9l13.166,0,5.267,5.266v15.8h-15.8a39.5,39.5,0,0,1-23.7-7.9H72Z" transform="translate(-37.567 -182.467)" fill="#f5c99d"/>
    <path id="Path_105" data-name="Path 105" d="M24,264H39.8v31.6H24Z" transform="translate(-5.367 -166.367)" fill="#009ff5"/>
    <path id="Path_106" data-name="Path 106" d="M354.135,288H349.51a26.972,26.972,0,0,0-19.074,7.9l-13.166,0L312,301.167v15.8h15.8a39.5,39.5,0,0,0,23.7-7.9h2.633Z" transform="translate(-198.568 -182.467)" fill="#f5c99d"/>
    <path id="Path_107" data-name="Path 107" d="M440,264h18.433v31.6H440Z" transform="translate(-284.434 -166.367)" fill="#009ff5"/>
    <path id="Path_108" data-name="Path 108" d="M280,310.206v-8.939a5.267,5.267,0,1,1,10.533,0v8.939Z" transform="translate(-177.1 -187.833)" fill="#f5c99d"/>
    <path id="Path_109" data-name="Path 109" d="M200,416h36.867v23.7H200Z" transform="translate(-123.433 -268.333)" fill="#009ff5"/>
    <path id="Path_110" data-name="Path 110" d="M231.9,189.067h5.267a2.634,2.634,0,0,1,0,5.267H226.633V199.6H231.9v5.267h5.267V199.6h0a7.9,7.9,0,0,0,0-15.8H231.9a2.633,2.633,0,1,1,0-5.267h10.533v-5.267h-5.267V168H231.9v5.267a7.9,7.9,0,1,0,0,15.8Z" transform="translate(-139.533 -101.967)"/>
    <path id="Path_111" data-name="Path 111" d="M18.633,174.8h15.8a2.633,2.633,0,0,0,2.633-2.633h1.772a42.413,42.413,0,0,0,24.562,7.9H76.567v7.9a2.633,2.633,0,0,0-2.633,2.633v23.7a2.633,2.633,0,0,0,2.633,2.633h36.867a2.633,2.633,0,0,0,2.633-2.633V190.6a2.633,2.633,0,0,0-2.633-2.633h-.741a33.8,33.8,0,0,0,2.673-7.9h13.868a42.418,42.418,0,0,0,23.759-7.348,2.634,2.634,0,0,0,2.575,2.082h15.8A2.633,2.633,0,0,0,174,172.167v-31.6a2.633,2.633,0,0,0-2.633-2.633h-15.8a2.633,2.633,0,0,0-2.633,2.633v5.267h-1.993a29.382,29.382,0,0,0-19.555,7.386,10.582,10.582,0,0,0-4.786-5.968V119.5a26.376,26.376,0,0,0-19.4-25.4l.238-.356a19.963,19.963,0,0,0,3.364-11.11A2.633,2.633,0,0,0,108.167,80H81.833A2.633,2.633,0,0,0,79.2,82.633a19.964,19.964,0,0,0,3.364,11.11l.238.356a26.376,26.376,0,0,0-19.4,25.4v26.023a2.119,2.119,0,0,1-1.178,1.906A7.358,7.358,0,0,0,58.7,151.2a29.387,29.387,0,0,0-17.007-5.367H37.067v-5.267a2.633,2.633,0,0,0-2.633-2.633h-15.8A2.633,2.633,0,0,0,16,140.567v31.6a2.633,2.633,0,0,0,2.633,2.633ZM158.2,143.2h10.533v26.333H158.2Zm-47.4,68.467H79.2V193.233h31.6Zm-28.967-23.7v-23.7h18.425A20.462,20.462,0,0,0,95,178.02v3.085h5.267V178.02a15.247,15.247,0,0,1,4.5-10.853,2.633,2.633,0,0,0,.772-1.862v-8.939a2.633,2.633,0,0,1,5.267,0v16.839a28.622,28.622,0,0,1-4.087,14.761ZM150.94,151.1h1.993v15.8h0a2.633,2.633,0,0,0-1.58.527,37.1,37.1,0,0,1-22.12,7.373H116.025c.025-.53.042-1.061.042-1.595l15.8-3.672v-5.267H118.242a2.44,2.44,0,0,1-2.175-2.633h0a2.868,2.868,0,0,1,.72-1.949,2,2,0,0,1,1.456-.685h13.624a2.619,2.619,0,0,0,1.862-.768A24.18,24.18,0,0,1,150.94,151.1ZM86.946,90.821A14.716,14.716,0,0,1,84.7,85.266h20.6a14.714,14.714,0,0,1-2.244,5.555L101.47,93.2c-.4-.018-.8-.031-1.2-.031H89.733c-.4,0-.8.012-1.2.031ZM64.578,152.139a7.357,7.357,0,0,0,4.089-6.616V119.5A21.091,21.091,0,0,1,89.733,98.433h10.533A21.091,21.091,0,0,1,121.333,119.5v26.334h-5.267V151.1h5.267a5.265,5.265,0,0,1,4.554,2.633h-7.645a7.074,7.074,0,0,0-2.485.449,7.9,7.9,0,0,0-15.49,2.185V159H78.752a7.913,7.913,0,0,0-7.452-5.267h0l-7.876,0a2.117,2.117,0,0,1,1.155-1.6ZM41.693,151.1A24.18,24.18,0,0,1,58.9,158.231a2.633,2.633,0,0,0,1.862.771h0L71.3,159a2.633,2.633,0,0,1,0,5.267H58.133v5.267H76.567V174.8H63.4a37.1,37.1,0,0,1-22.12-7.373,2.633,2.633,0,0,0-1.58-.527H37.067V151.1Zm-20.426-7.9H31.8v26.333H21.267Z" transform="translate(0 -42.933)"/>
    <path id="Path_112" data-name="Path 112" d="M120,144h7.9v5.267H120Z" transform="translate(-69.767 -85.867)"/>
    <path id="Path_113" data-name="Path 113" d="M368,144h7.9v5.267H368Z" transform="translate(-236.133 -85.867)"/>
    <path id="Path_114" data-name="Path 114" d="M0,0H7.9V5.267H0Z" transform="translate(119.193 32.846) rotate(-45)"/>
    <path id="Path_115" data-name="Path 115" d="M248,16h5.267v7.9H248Z" transform="translate(-155.633)"/>
    <path id="Path_116" data-name="Path 116" d="M0,0H5.267V7.9H0Z" transform="translate(61.475 30.976) rotate(-45)"/>
  </g>
</svg>
